<svg viewBox="0 0 83 85" fill="none" xmlns="http://www.w3.org/2000/svg"><g clip-path="url(#a)" fill="#46A358"><path d="M44.3 44.03c.02.48.16.94.42 1.35.22.36.79.02.56-.34-.2-.32-.3-.65-.31-1.02-.02-.42-.69-.41-.67 0Zm8.5-.05c-.02.19-.06.37-.1.55-.03.17.07.35.24.4.17.04.38-.06.4-.24l.11-.54c.03-.18-.06-.36-.24-.4-.16-.04-.37.06-.4.23Zm4.54.66c.43-.01.41-.67-.01-.66-.43.01-.42.67.01.66Zm-24.86 1.16c.43-.02.42-.67-.01-.66-.43 0-.41.66.01.65Z"/><path d="M44.59 4.39a75.82 75.82 0 0 0-3.4 34.95c.25 1.8.57 3.6.96 5.39.3 1.4.45 2.99 1.5 4.05.45.46 1.13-.25.69-.7-1.13-1.15-1.25-3.58-1.54-5.08a72.7 72.7 0 0 1-1.29-16.7 75.06 75.06 0 0 1 4.04-21.67c.2-.6-.76-.84-.96-.24Zm3.85.13c1.34 7.44 1.37 15.05 1.64 22.59.12 3.54.34 7.09.27 10.63a43 43 0 0 1-1.78 10.67c-.17.61.8.85.96.24.92-3.3 1.65-6.57 1.79-10.01.15-3.85-.1-7.71-.24-11.55-.28-7.63-.33-15.31-1.69-22.85-.1-.62-1.06-.34-.95.28Zm7.19 12.79c.45 10.19.86 20.5-1.65 30.47-.16.61.8.85.96.24 2.54-10.06 2.14-20.46 1.68-30.73-.03-.63-1.02-.61-1 .02Z"/><path d="M52.82 17.46a12.07 12.07 0 0 0-2.76 5.62c-.12.62.84.87.97.24a11.04 11.04 0 0 1 2.5-5.18c.42-.48-.29-1.16-.7-.68Zm9.78 6.26a82.96 82.96 0 0 1-2.98 21.8c-.17.6.8.84.97.23a84.09 84.09 0 0 0 3-22.05c0-.63-.98-.61-.98.02Zm-1.88-2.2c-2.57 2.94-3.83 6.56-4.74 10.3-.15.6.82.85.97.23.86-3.55 2.03-7.04 4.49-9.85.41-.48-.3-1.16-.72-.68Zm-23.97-11.1a58.78 58.78 0 0 1 3.85 12.78c.11.62 1.06.34.95-.28-.8-4.4-2.08-8.67-3.84-12.78-.25-.58-1.2-.3-.96.28Zm-1.84.35c-.51 6.25-1.02 12.57.03 18.8 1.1 6.49 3.8 12.82 5.89 19.05.2.6 1.15.32.95-.28-2.01-6.04-4.62-12.18-5.78-18.45-1.17-6.31-.62-12.79-.1-19.14.06-.62-.93-.6-.99.02Z"/><path d="M28.6 25.86c3.31 3.05 6 6.62 8 10.63.3.56 1.13.04.85-.52a37.57 37.57 0 0 0-8.16-10.82c-.47-.43-1.16.28-.7.71Zm-2.28 1.26a100.74 100.74 0 0 0 10.3 21.59c.34.54 1.2.02.85-.51a99.6 99.6 0 0 1-10.2-21.36c-.2-.6-1.15-.32-.95.28Z"/><path d="M32.07 46.76a15.23 15.23 0 0 0-6.28-6.1c-.54-.28-1.06-.2 0-.31.38-.04.77-.06 1.16-.05 1.25.01 2.38.24 3.46.9 1.25.79 2.34 1.9 3.46 2.86.48.4 1.17-.3.69-.71-1.42-1.21-2.82-2.72-4.56-3.48a7.68 7.68 0 0 0-3.07-.54c-.67 0-2.06-.13-2.62.43-1.1 1.1 1 1.74 1.65 2.12 2.24 1.3 4 3.17 5.26 5.4.31.55 1.16.03.85-.52Zm30.21-7.96c.97-2.14 3.22-2.81 5.37-3.26.31-.07.44-.48.28-.73-1.16-1.82-3.29-2-5.27-1.82-.64.05-.62 1.04.02.98 1.6-.14 3.44-.15 4.4 1.36.1-.24.2-.49.28-.73-2.38.5-4.88 1.35-5.95 3.71-.26.58.61 1.06.87.48Zm-33.85-13.89c-.44.57-.93 1.28-1.65 1.51-.71.23-1.48-.1-1.42-.95.04-.67.62-1.15 1.18-1.43.66-.33 2.45-.48 1.98.76-.23.6.74.83.96.24.46-1.2-.64-2.25-1.82-2.27-1.23-.02-2.66.79-3.12 1.94-.44 1.07.02 2.4 1.22 2.71 1.47.37 2.59-.78 3.39-1.82.38-.5-.33-1.19-.72-.69Zm8.57-15.23c-.62.12-1.52.51-2.14.19-.62-.33-.5-1.15-.15-1.63.38-.5.97-.67 1.56-.5.48.12 2 1.37.94 1.8-.58.25-.3 1.2.29.95 1.24-.51 1.2-1.93.4-2.84-.8-.93-2.25-1.28-3.32-.6-.94.58-1.47 1.87-.96 2.9.73 1.45 2.41.9 3.66.67.63-.11.34-1.06-.28-.94Zm11.8-5.98c-.87.21-1.87.47-2.76.26-1.25-.3-1.3-1.7-.42-2.44.7-.59 1.78-.65 2.63-.4.54.16 1.17.5 1.31 1.1.14.54-.13 1.08-.68 1.21-.62.15-.34 1.1.28.94 1.48-.36 1.8-2.18.9-3.25-1.03-1.2-3.09-1.41-4.47-.75-1.3.63-2.09 2.32-1.22 3.6 1 1.5 3.25 1.03 4.7.66.62-.15.34-1.1-.28-.94Zm7.07 9.64c-1.43-.25-2.99.16-3.64 1.56-.53 1.13-.03 2.6 1.2 3.02 1.24.43 3.13-.1 3.81-1.24.66-1.1.19-2.48-.85-3.14-.54-.34-1.02.52-.49.86.67.42.9 1.37.34 1.98-.48.55-1.52.78-2.23.66-.9-.16-1.25-1.1-.8-1.88.5-.85 1.52-1.02 2.42-.87.62.12.87-.84.24-.95Zm7.7 5.43c-1.26-.09-3 .1-3.27 1.6-.23 1.25 1.2 2.9 2.3 3.34 3.12 1.26 3.79-5.03 1.1-4.86-.64.04-.63 1.02.01.98.88-.05.66 2 .46 2.4-.46.97-1.36.62-1.95 0-.45-.47-1.26-1.31-.8-2 .46-.65 1.47-.52 2.17-.48.63.04.6-.94-.02-.98Zm-17.93-12.59-.3.99c-.13.4.52.56.64.16l.3-1c.12-.4-.52-.56-.64-.15Zm1.41.05.01.66c.01.42.68.4.67-.02l-.02-.65c0-.42-.67-.4-.66.01Zm-.47 3.94c.43-.01.41-.67-.01-.66-.43.01-.41.66.01.66Zm-1.98.36-.08 1.1c-.01.17.17.32.34.32.2 0 .3-.16.32-.34l.09-1.09c.01-.18-.18-.32-.34-.32-.2 0-.31.16-.33.33Zm1.57 1.07.03 1.2c0 .42.67.4.66-.02l-.03-1.2c0-.42-.67-.4-.66.01Zm1.17-2.32.13.98c.02.17.15.32.34.32.16 0 .35-.16.32-.34l-.13-.97c-.02-.18-.14-.33-.33-.33-.17 0-.35.16-.33.34Zm.1 4.91v.54c.02.42.68.41.67-.01l-.01-.55c-.01-.42-.67-.4-.66.02Z"/><path d="M46 8.87c-.03.32.04.63.18.92.07.16.32.2.46.11.17-.1.18-.29.1-.45-.08-.19-.1-.4-.07-.6.01-.17-.18-.32-.34-.32-.2 0-.3.16-.32.34Zm-2.3 5.19-.2 1.1c-.08.41.56.58.64.16l.2-1.1c.07-.4-.57-.57-.65-.16Zm1.82 2.26-.1.77c-.01.17.06.35.24.4.16.04.38-.06.4-.24l.1-.76c.02-.18-.05-.35-.24-.4-.15-.05-.38.06-.4.23Zm-.58 4.66c.05.28.02.55-.07.81-.14.4.5.56.64.16.13-.38.14-.77.06-1.16-.03-.17-.25-.27-.4-.22-.2.06-.27.23-.23.4Zm-2.03-2.64-.09.76c-.02.18.05.35.24.4.16.04.38-.06.4-.23l.1-.77c.02-.18-.05-.35-.24-.4-.16-.04-.39.06-.4.24Zm4.51.52.24 1.08c.09.42.72.23.63-.18l-.23-1.09c-.1-.41-.72-.22-.64.19Zm.43 4.81.03 1.09c0 .42.67.4.66-.02l-.02-1.09c-.01-.42-.67-.4-.67.02Zm-.78 4.79.13.77c.03.17.25.26.41.22.19-.06.25-.24.22-.41l-.12-.76c-.03-.18-.26-.27-.41-.22-.2.05-.26.23-.23.4Zm-2.7-2.43.02.65c0 .43.67.41.66 0l-.01-.66c-.01-.43-.67-.41-.67 0Zm-1.82-2.8c.02.27 0 .53-.08.79-.13.4.52.56.64.16.1-.31.13-.64.1-.96-.03-.42-.7-.41-.66 0Zm.83 7.53-.1.77c-.02.17.05.35.24.4.16.03.38-.06.4-.24l.1-.77c.03-.17-.05-.35-.24-.4-.15-.03-.38.06-.4.24Zm3.38 3.71.12.65c.04.17.25.27.41.22.19-.06.26-.23.22-.4l-.12-.66c-.03-.17-.25-.27-.41-.22-.19.06-.26.23-.22.4Zm-1.79 3.74.24 1.09c.09.41.72.22.63-.19l-.24-1.08c-.1-.42-.73-.23-.63.18Zm3.69 2.37-.2.77c-.12.41.53.57.64.16l.2-.77c.11-.4-.53-.57-.64-.16Zm-.49-28.39.13.76c.02.17.25.26.4.22.2-.06.26-.23.23-.4l-.13-.77c-.03-.17-.26-.26-.41-.22-.19.06-.25.23-.22.4Zm.08 4.49.13.98c.03.17.15.32.34.32.16 0 .35-.16.33-.34l-.14-.97c-.03-.18-.14-.33-.34-.32-.16 0-.35.16-.32.33Zm4.96 3.63-.27 1.54c-.07.41.57.57.64.16l.27-1.54c.07-.41-.57-.57-.64-.16Zm1.29-.92.01.76c.01.42.68.4.67-.01l-.02-.77c-.01-.42-.67-.4-.66.02Zm-.36 3.5-.19 1.63c-.05.42.62.4.66 0l.19-1.65c.04-.41-.62-.4-.66.02Zm-1.72.95-.42.88c-.18.38.4.7.58.32l.42-.88c.18-.38-.4-.7-.58-.32Zm-.99-1.74-.26.66c-.06.16.08.35.24.4.19.05.34-.07.4-.24l.26-.66c.06-.17-.08-.36-.24-.4-.19-.05-.34.07-.4.23Zm1.89 4.3-.04.87c-.02.42.64.4.66-.02l.04-.87c.01-.42-.65-.4-.66.01Zm1.35 1.71-.04.82c0 .17.17.32.34.32.19 0 .31-.16.32-.34l.04-.81c.01-.18-.16-.33-.33-.32-.2 0-.32.15-.33.33Zm-.52 2.93-.1.7c-.02.18.06.36.25.4.15.04.38-.05.4-.23l.1-.71c.01-.17-.06-.35-.25-.4-.16-.04-.38.06-.4.23Zm-2.47-2.03-.1.6c-.03.18.06.36.24.4.16.04.37-.06.4-.23l.1-.6c.03-.18-.05-.35-.24-.4-.16-.04-.37.06-.4.23Zm.48 5.21v.43c.02.42.68.4.67-.01l-.01-.44c-.01-.42-.67-.4-.66.02Zm2.14 1.92v.43c.02.42.68.41.67-.01l-.01-.44c-.01-.42-.67-.4-.66.02Zm-1.91 3.96c.03.26 0 .5-.08.73-.06.17.07.36.23.4.19.05.35-.07.4-.23.1-.3.14-.6.11-.9-.02-.19-.15-.33-.34-.33-.17 0-.34.15-.32.33Zm.81-21.45-.26.5c-.19.37.39.7.58.32l.27-.5c.2-.37-.38-.7-.58-.32Zm-17.16-6.22.18 1.04c.03.17.26.26.41.22.2-.06.26-.24.22-.41l-.18-1.03c-.03-.18-.25-.27-.4-.22-.2.05-.26.23-.23.4Zm.99 2.17.46 1.08c.07.16.22.27.4.22.16-.05.3-.25.23-.4l-.46-1.1c-.07-.16-.23-.27-.41-.21-.16.05-.3.24-.22.4Zm-.91 1.2c-.07.5-.07.99.02 1.48.08.42.7.23.64-.18a3.53 3.53 0 0 1-.01-1.14c.05-.41-.59-.57-.65-.16Zm1.26 1.9.33.92c.15.4.78.21.64-.19l-.33-.92c-.15-.4-.78-.22-.64.18Zm-1.54 1.3.02 1.1c.01.41.68.4.67-.02l-.03-1.1c0-.41-.67-.4-.66.02Zm1.24 1.23.02.98c.01.43.67.41.66 0 0-.34 0-.66-.02-1 0-.41-.67-.4-.66.02Zm1.85.65.4 1.14c.14.4.78.21.64-.19l-.4-1.14c-.14-.4-.78-.2-.64.19Zm.73 3.26.12.6c.04.17.25.27.41.22.19-.06.26-.24.22-.41l-.12-.6c-.04-.17-.25-.27-.41-.22-.18.05-.26.23-.22.4Zm-1.82.03c.11.31.19.63.23.95.02.18.14.32.33.32.17 0 .35-.16.33-.33a4.98 4.98 0 0 0-.25-1.12c-.15-.4-.78-.21-.64.18Zm-1.7-1.3.02.76c0 .42.67.41.66-.01 0-.26 0-.51-.02-.76 0-.43-.66-.41-.66 0Zm.8 3.91c.03.33.09.65.2.95.14.4.78.22.63-.18a2.9 2.9 0 0 1-.17-.78c-.03-.42-.69-.41-.66 0Zm1.45 2.78.18.6c.12.4.75.22.63-.19l-.17-.6c-.12-.4-.76-.21-.64.2Zm.78-2.52.12.43c.1.4.74.22.63-.18l-.12-.44c-.11-.4-.74-.22-.63.19Zm-1.87 5.44c.07.32.15.65.24.97.1.41.73.23.63-.18l-.24-.98c-.1-.4-.74-.22-.64.19Zm1.64 4.76.17.43c.07.17.23.28.41.22.16-.04.29-.24.22-.4l-.17-.44c-.07-.16-.23-.27-.41-.21-.16.04-.29.24-.22.4Zm21.54-13.56-.53 1.05c-.2.38.39.7.58.32l.53-1.05c.2-.38-.39-.7-.58-.32Zm.92.82-.24 1c-.11.4.53.56.64.15l.25-.98c.1-.41-.54-.57-.64-.17Zm-.8 3.13-.26.83c-.12.4.52.56.64.16l.26-.83c.11-.4-.53-.56-.65-.16Zm-.56-1.33-.21.4c-.21.36.37.68.57.31l.22-.39c.2-.36-.38-.68-.58-.31Zm1.63.16-.09.77c-.02.18.05.35.24.4.16.04.38-.06.4-.24l.1-.76c.01-.18-.06-.35-.24-.4-.16-.04-.39.06-.4.23Zm-3.12 1.7c-.06.21-.16.4-.28.58-.23.36.35.68.58.32.15-.23.26-.48.35-.74.05-.16-.08-.35-.24-.4a.34.34 0 0 0-.4.24Zm-.02 2.82c-.14.23-.2.5-.2.77.03.41.69.4.67-.02 0-.16.02-.3.11-.43.23-.37-.35-.68-.58-.32Zm1.73-.72-.2.66c-.12.4.53.56.65.16l.2-.66c.11-.4-.53-.57-.65-.16Zm-.55 3.22-.2.72c-.12.4.52.56.64.16l.2-.72c.12-.4-.52-.56-.64-.16Zm2.1-4.64-.05.43c-.02.18.18.33.34.33.2 0 .3-.16.33-.34l.04-.44c.02-.17-.17-.32-.33-.32-.2 0-.3.16-.33.34Zm-4.16 6.54-.1.33c-.12.4.52.56.64.16l.1-.33c.13-.4-.51-.56-.64-.16Zm-.53 3.34-.21.55c-.06.16.08.36.24.4.19.05.34-.07.4-.24l.21-.55c.07-.16-.08-.35-.23-.4-.2-.04-.34.07-.4.24Zm2.61-1.33v.33c.01.42.67.4.66-.02v-.32c-.01-.43-.67-.41-.66 0Zm-1.23 4.33-.05.44c-.02.18.17.33.33.32.2 0 .3-.15.33-.33l.04-.44c.02-.18-.17-.32-.33-.32-.2 0-.3.16-.33.33Zm-30.24-13.64.17.54c.13.4.76.22.64-.18l-.18-.55c-.12-.4-.76-.21-.63.2Zm.68-.74.67.8c.11.15.35.12.47 0 .13-.14.1-.32-.01-.46l-.67-.81c-.11-.14-.36-.11-.47 0-.13.14-.1.33.01.47Zm1.27 2.3.57.8c.25.35.82 0 .57-.34l-.57-.8c-.25-.34-.82 0-.57.34Zm-.81.78.45.76c.22.36.79.02.57-.34l-.46-.76c-.22-.36-.78-.02-.56.34Zm1.48 2.7.58 1.02c.2.37.77.03.57-.34-.2-.34-.4-.68-.58-1.02-.22-.36-.78-.02-.57.34Zm.59-.99.4.6c.23.34.8 0 .56-.35l-.4-.59c-.24-.35-.8-.01-.56.34Zm.3-1.37c.11.23.3.4.52.54.37.21.7-.36.32-.57a.65.65 0 0 1-.27-.31c-.08-.16-.32-.2-.46-.11-.16.1-.18.29-.1.45Zm-2.47 1.71.12.55c.04.17.25.27.4.22a.33.33 0 0 0 .23-.4l-.13-.55c-.04-.18-.24-.27-.4-.22-.19.05-.27.23-.23.4Zm2.08 3.43.45.91c.08.16.32.2.46.11.17-.1.19-.29.11-.45l-.45-.92c-.08-.16-.32-.2-.46-.1-.17.1-.19.29-.11.44Zm2.47-.93.35.65c.2.37.76.03.56-.34l-.34-.65c-.2-.38-.77-.04-.57.34Zm.75 4.68.3.53c.2.38.76.03.56-.34l-.29-.53c-.2-.38-.76-.04-.56.34Zm1.18-1.66.34.54c.23.35.8.01.57-.34l-.34-.54c-.23-.36-.8-.02-.57.34Zm1.32 5.04.28.49c.21.37.77.02.57-.34l-.29-.49c-.2-.36-.77-.02-.56.34Zm-10.67-2.02.66.31c.39.18.71-.4.33-.57l-.67-.31c-.38-.18-.7.4-.32.57Zm2.1.95.74.53c.14.1.37.01.45-.13.1-.17.01-.34-.13-.45l-.73-.52c-.15-.1-.38-.02-.45.13-.1.17-.02.34.12.44Zm-.32-1c.17.04.32.1.48.18.37.2.7-.37.32-.57-.2-.11-.42-.2-.64-.24-.41-.1-.58.54-.16.63Zm1.94 1.4.45.32c.14.1.37.01.45-.13.1-.17.01-.35-.13-.45l-.45-.31c-.15-.1-.37-.02-.45.12-.1.17-.02.34.13.45Zm-.05.98.23.32c.24.34.8 0 .57-.34l-.23-.32c-.24-.35-.81-.01-.57.34Zm1.5.52.45.38c.14.11.34.12.47-.01.12-.12.13-.35-.01-.46l-.45-.38c-.14-.11-.34-.12-.47.01-.12.12-.13.35.01.46Zm34.16-9.63c-.35-.07-.7-.06-1.05.02-.42.1-.23.74.19.63.23-.06.46-.07.7-.02.42.08.58-.56.16-.63Zm-2.28.67-.38.28c-.14.1-.21.3-.11.45.09.15.31.22.46.11l.38-.28c.14-.1.2-.29.1-.45-.08-.14-.3-.21-.45-.1Zm.11-.32c.42 0 .4-.66-.02-.65-.43 0-.41.66.02.65Z"/></g><g clip-path="url(#b)" fill="#727272"><path d="M30.39 47.62a67.27 67.27 0 0 0-4.53 18.75c-.46 5.52-.32 11.47 2.7 16.28.35.55 1.2.02.85-.53-3.03-4.83-3.02-10.88-2.5-16.4a67 67 0 0 1 4.45-17.85c.23-.6-.74-.85-.97-.25Zm30.4-.93c5.32 4.06 5.33 11.5 5.9 17.62.3 3.08.7 6.17.84 9.27.13 2.83-.1 5.84-2.32 7.84-.48.44.25 1.14.72.7 1.95-1.76 2.55-4.29 2.62-6.85.1-3.65-.52-7.36-.86-10.98-.6-6.37-.67-14.1-6.21-18.34-.5-.38-1.2.34-.7.74Z"/><path d="M28.76 82.85c2.82 1.04 5.71 1.3 8.68 1.55 3.3.28 6.61.7 9.91.58 3.36-.12 6.72-.6 10.06-.96 2.92-.33 5.81-.73 8.53-1.91.59-.25.31-1.23-.28-.98-2.82 1.23-5.82 1.6-8.84 1.93-3.15.34-6.32.8-9.49.9-3.1.12-6.2-.26-9.3-.52-3.07-.27-6.1-.5-9.02-1.57-.61-.22-.85.76-.25.98Zm1.87-34.67c2.32.97 4.7 1.82 7.21 2.12 2.61.32 5.28-.13 7.9-.06 1.46.03 2.77.23 4.24.02 1.27-.19 2.54-.44 3.77-.8 2.55-.74 5.02-1.77 7.53-2.65.6-.22.32-1.2-.3-.98-4.9 1.74-9.49 3.77-14.78 3.42-2.2-.15-4.4.18-6.59.16-2.95-.03-5.8-1-8.5-2.11-.59-.25-1.08.64-.48.88Zm-29.97 3.06a25.6 25.6 0 0 1 14.72 7.78c3.78 4.06 5.9 9.4 10.03 13.17.48.44 1.17-.3.7-.73-4.38-4-6.56-9.77-10.76-13.92a26.51 26.51 0 0 0-14.44-7.28c-.63-.1-.88.88-.25.98Zm.88-1.82a20.96 20.96 0 0 1 15.06 2.12c3.64 2.07 6.64 5.35 10.99 5.8.64.06.61-.96-.02-1.02-4.88-.5-8.4-4.97-12.8-6.8a22.1 22.1 0 0 0-13.52-1.07c-.63.14-.34 1.12.29.97Z"/><path d="M.72 48.74a4.03 4.03 0 0 0-.71 1.82c-.04.27.08.54.36.61.24.07.57-.1.6-.37.08-.58.29-1.09.63-1.57.16-.22.02-.56-.2-.69-.25-.14-.52-.02-.68.2Zm64.09.93c2.07-4.02 8.64-4.53 12.35-2.7a8.82 8.82 0 0 1 4.22 11.07c-1.43 3.69-5.12 5.5-8.15 7.62-1.28.9-2.7 1.9-3.58 3.23-.92 1.38-.8 3.14-1.72 4.52-.36.55.52 1.03.88.5.57-.87.74-1.8 1-2.8a6.07 6.07 0 0 1 2.13-3.2c1.8-1.56 3.9-2.7 5.82-4.1 3.39-2.49 5.77-6.02 5.14-10.45a9.74 9.74 0 0 0-7.72-8.1c-3.98-.74-9.22-.02-11.25 3.92-.3.58.58 1.07.88.5Z"/><path d="M65.82 52.23c1.39-2.8 4.54-3.53 7.4-3.3 1.9.14 3.09.9 4.08 2.57 1.1 1.83 1.05 3.38.43 5.34-.98 3.07-2.75 4.49-5.47 5.93-1.78.94-4.5 2.17-5.2 4.25-.22.62.76.86.97.25.64-1.9 3.82-3.13 5.45-4a10.2 10.2 0 0 0 3.7-2.93c1.52-2.12 2.76-5.57 1.66-8.07-1.34-3.06-3.39-4.41-6.66-4.39-2.92.02-5.86 1.08-7.23 3.85-.29.58.59 1.08.87.5Zm-18.52 7.34a6.55 6.55 0 0 0-5.71 5.77c-.29 2.96 1.68 6.8 5.02 6.58 3.05-.2 5.76-3.2 6.04-6.2.3-3.3-2.13-6.18-5.44-6.03-.65.02-.63 1.04.02 1.01 2.9-.13 4.9 2.57 4.36 5.4-.44 2.3-2.62 4.61-5 4.81-2.92.24-4.41-3.51-3.95-5.95a5.57 5.57 0 0 1 4.69-4.37c.63-.1.62-1.12-.02-1.02Z"/><path d="M47.88 60.01c-.18-2.15 3.16-5.42 4.82-2.93.52.77 1.02 2.14.8 3.1-.22 1.01-1.2 1.77-1.96 2.4-.5.41.23 1.11.72.7 1.19-.98 2.4-2.16 2.3-3.85-.1-1.38-.85-3.2-2.04-3.96-2.53-1.62-5.84 2.09-5.64 4.57.05.64 1.05.63 1-.03Z"/><path d="M52.53 63.51c1.25-.75 4.5-.55 4.16 1.63-.32 2.07-2.97 2.16-4.54 2.18-.65 0-.63 1.02.02 1.01 2.2-.02 6.06-.73 5.5-3.9-.43-2.48-3.88-2.86-5.67-1.79-.55.34-.03 1.2.53.87Z"/><path d="M51.52 68.52c1.75.79 3.73 3.12 2.06 5-1.95 2.2-4.77.02-5.5-2.1-.2-.62-1.16-.33-.95.3.93 2.73 4.3 5.1 6.9 2.78 2.51-2.26.5-5.73-2.02-6.87-.59-.26-1.08.63-.49.89Z"/><path d="M46.65 71.67c.09 1.71-.38 4.25-2.64 3.94a2.08 2.08 0 0 1-1.77-2.13c.04-.96.7-2.07 1.06-2.95.25-.6-.62-1.1-.87-.49-.53 1.28-1.45 2.77-1.11 4.22a3.08 3.08 0 0 0 2.35 2.33c2.98.6 4.1-2.52 3.98-4.94-.04-.65-1.04-.63-1 .02Z"/><path d="M43.17 69.27c-1.87.78-4.75.58-5.4-1.79-.28-1.04.04-2.27 1-2.84.94-.55 2.15-.4 3.17-.28.63.08.88-.9.25-.98-1.42-.17-3.02-.33-4.24.6a3.5 3.5 0 0 0-1.23 3.34c.5 3.19 4.18 3.99 6.73 2.92.6-.24.31-1.22-.28-.97Z"/><path d="M42.55 63.5c-1.69-.92-2.57-4.28-1.1-5.73 1.95-1.9 4.33.8 5.5 2.26.41.5 1.1-.23.7-.73-1.53-1.91-4.85-4.83-7.12-2.08-1.67 2.03-.67 5.97 1.53 7.16.57.31 1.06-.57.49-.89Zm1.6 7.46c-.79.77-1.3 2.86-.09 3.49 1.46.76 2.1-1.83 2.3-2.76.08-.43-.57-.6-.65-.17a8.13 8.13 0 0 1-.61 1.84c-.16.3-.25.48-.6.44-.95-.12-.3-1.95.14-2.37.3-.3-.18-.77-.49-.47Zm4.3.04c-.17.98.92 1.74 1.7 2.1.78.34 1.88.46 2.62-.09.7-.53.6-1.48.29-2.22a3.7 3.7 0 0 0-2.25-2.01c-.4-.15-.57.51-.16.65.59.22 1.12.58 1.5 1.1.13.18.23.37.31.58.2.5.23.72-.12 1.15-.29.37-.44.45-.89.45a2.5 2.5 0 0 1-.83-.15c-.4-.14-1.62-.79-1.52-1.38.07-.44-.57-.6-.65-.18Zm3.87-4.38c.84.22 1.67-.15 2.38-.6.5-.33 1.19-.93 1.13-1.62-.05-.58-.62-.85-1.13-.91a3.67 3.67 0 0 0-2.44.75c-.36.24 0 .82.35.58.37-.25.76-.48 1.2-.59.4-.1 1.58-.27 1.22.58-.31.75-1.84 1.34-2.55 1.16-.41-.1-.58.55-.16.65Zm-3.12-6.32a1.7 1.7 0 0 1 .43-1.4c.27-.28.91-.65 1.3-.44.33.2.3 1.01.3 1.39 0 .53-.11 1.04-.29 1.55-.14.4.5.57.65.16.29-.81.39-1.67.25-2.54-.1-.59-.2-1.18-.85-1.27-1.45-.2-2.58 1.17-2.44 2.57.04.43.7.42.66-.01Z"/><path d="M43.02 62.57c-.52-.66-.96-1.86-.8-2.7.11-.52.23-.67.76-.73.53-.05.66.1 1.04.42l1.14.96c.33.27.8-.21.46-.49-.94-.78-2.45-2.6-3.64-1.22-.93 1.07-.3 3.13.47 4.12.26.33.83-.02.57-.36Zm-1.2 2.63c-1.3-.52-3 .65-2.8 2.14.19 1.4 2.42 1.92 3.42 1.13.34-.26 0-.85-.34-.58-.55.43-1.91.32-2.31-.33-.59-.94.84-2.12 1.7-1.76.4.16.73-.43.33-.6Z"/></g><defs><clipPath id="a"><path fill="#fff" transform="translate(24)" d="M0 0h44v49h-44z"/></clipPath><clipPath id="b"><path fill="#fff" transform="translate(0 45)" d="M0 0h83v40h-83z"/></clipPath></defs></svg>