<svg viewBox="0 0 61 93" fill="none" xmlns="http://www.w3.org/2000/svg"><g clip-path="url(#a)" fill="#727272"><path d="M12.13 46.36a170.98 170.98 0 0 0 37.9.78c.85-.08.86-1.43 0-1.36a170.98 170.98 0 0 1-37.9-.78c-.85-.1-.85 1.25 0 1.36Zm2.9 45.67c5.44.7 10.9 1.03 16.38.96 4.82-.07 10.52.14 15.03-1.77.79-.33.44-1.64-.35-1.3-4.64 1.96-10.58 1.7-15.54 1.72-5.2.04-10.37-.3-15.52-.96-.86-.11-.85 1.24 0 1.35Z"/><path d="M11.6 45.32c-6.27 5.85-9.2 14.57-8.5 23.08.35 4.4 1.59 8.67 3.45 12.65 1.7 3.64 4.2 8.84 7.94 10.73.77.39 1.46-.77.68-1.17-3.49-1.75-5.86-6.82-7.46-10.24a35.1 35.1 0 0 1-3.32-12.72c-.45-7.94 2.32-15.93 8.17-21.38.64-.59-.32-1.55-.96-.95Zm37.95 1.63c6.62 4.17 7.24 13.17 7.08 20.25-.18 7.9-1.15 20.41-10.54 22.72-.84.2-.49 1.51.35 1.3 9.8-2.4 11.21-14.82 11.51-23.18.27-7.82-.42-17.65-7.73-22.26-.73-.46-1.4.71-.67 1.17Z"/><path d="M16.58 46.37c-4.94 5.34-7.12 14.26-6.28 21.41.48 4.17 1.79 8.3 2.76 12.36.98 4.07 1.99 8.1 4.2 11.7.46.74 1.62.06 1.16-.68-2.08-3.37-3.04-7.14-3.96-10.96-.9-3.68-1.93-7.36-2.61-11.08-1.3-7.08.73-16.44 5.68-21.8.59-.64-.37-1.6-.95-.95Z"/><path d="M23.24 46.93a42.44 42.44 0 0 0-5.51 21.4c.05 3.6.56 7.2 1.54 10.66 1.21 4.3 3.06 8.37 3.87 12.78.15.86 1.45.5 1.3-.36-.71-3.86-2.2-7.46-3.4-11.18a40.76 40.76 0 0 1-1.95-11.15 41.09 41.09 0 0 1 5.31-21.47c.43-.76-.73-1.44-1.16-.68Zm3.96 1.29c1.28 7.51-.27 15.04-.14 22.58.06 3.45.83 6.65 1.27 10.04.47 3.52-.33 7.14-.76 10.64-.11.86 1.24.85 1.34 0 .44-3.53 1.24-7.18.77-10.73-.48-3.63-1.28-7.08-1.28-10.77-.01-7.4 1.35-14.75.1-22.11-.15-.86-1.44-.5-1.3.35Zm5.05-.62c2.36 6.78 2.65 13.94 2.89 21.06.26 7.73-.13 15.34-1.56 22.95-.17.85 1.13 1.22 1.3.36a105.78 105.78 0 0 0 1.6-23.31c-.24-7.24-.54-14.53-2.94-21.42-.28-.82-1.58-.46-1.3.36Zm5.65.03c.5 1.53 1.58 2.55 2.4 3.89a13.57 13.57 0 0 1 1.74 5.03c.6 3.86.32 7.9.31 11.8 0 4.23.31 8.7-.77 12.84-.96 3.63-3.17 6.76-3.9 10.46-.17.85 1.12 1.21 1.3.36.78-3.96 3.22-7.32 4.08-11.27.89-4.04.63-8.29.64-12.4 0-3.8.23-7.67-.26-11.45a16.3 16.3 0 0 0-1.32-4.84c-.8-1.7-2.33-3-2.91-4.78-.28-.82-1.58-.47-1.3.36Zm6.55-.21c2.67 2.52 3.96 6.55 4.92 10.03 1 3.63.67 7.5.45 11.2-.46 7.53-1.72 15.05-5.31 21.76-.41.77.75 1.45 1.16.68 3.83-7.15 5.1-15.2 5.53-23.22.22-4.04.4-7.98-.87-11.87-1.1-3.38-2.3-7.05-4.93-9.54-.63-.6-1.58.36-.95.96Zm-27.98 3.38c-.14.35-.3.7-.46 1.05-.2.44.04 1.04.59 1.02.39-.01.7-.19.97-.45l.27-.27c.1-.1-.04.07.05-.03-.02.03-.12.02-.03.03l-.65-.86-.18.91c-.07.36.1.73.47.83.33.1.76-.1.83-.47l.18-.91c.09-.46-.2-.81-.65-.86-.37-.03-.7.17-.97.4l-.27.27-.1.08.05-.03c-.07.03-.07.04 0 0-.07.02-.06.03.02 0l.58 1.02c.22-.45.42-.9.6-1.37.13-.34-.15-.75-.48-.84-.37-.1-.69.14-.82.48Zm-3.33 8.09-.19 1.13c-.05.3.03.6.3.76.26.15.63.12.83-.1l.39-.45c.08-.1.2-.28.3-.33l-.34.09.08-.01a7.4 7.4 0 0 0-.35-.1l.06.05-.33-.59c.03.39-.07.82-.12 1.21-.06.57.6.77 1.01.59.53-.25.89-.7 1.08-1.25l-1.13.3-.04-.26c-.22.84 1.08 1.2 1.3.36.1-.38 0-.8-.3-1.06-.41-.33-.96-.2-1.13.3-.09.23-.25.34-.46.44l1.02.59c.06-.6.39-1.68-.44-1.9-.7-.2-1.18.63-1.56 1.06l1.13.66.18-1.13c.06-.36-.09-.73-.47-.83-.32-.09-.76.1-.82.47Zm-.58 8.15.14 1.59c.07.75 1.07.93 1.32.18.14-.42.32-.8.56-1.16l-1.23-.16c.16.39.27.8.33 1.21.06.48.64.56.98.41a.9.9 0 0 0 .4-.39l.1-.23.04-.12c.02-.07.01-.07-.02.01l-.3.18.07-.03h-.35l-.03-.01-.24-.25.04.06-.07-.53-.01.07c-.05.36.09.72.47.83.32.09.78-.1.83-.47.04-.3.02-.56-.2-.78a.88.88 0 0 0-.7-.24.87.87 0 0 0-.63.4c-.06.1-.14.23-.14.34 0 .16-.07.04.07-.02l.99.4a5.24 5.24 0 0 0-.33-1.21c-.21-.53-.9-.69-1.22-.16-.3.46-.53.96-.7 1.47l1.32.18-.14-1.59c-.03-.36-.28-.67-.67-.67-.34.01-.71.32-.68.69Zm1.62 9.54c.04.78.43 1.46 1.11 1.85.45.26 1-.07 1.01-.58 0-.4.1-.76.25-1.13l-1.13.3c.19.22.39.42.6.6.36.3 1.02.25 1.13-.3l.1-.33-1.13.3c.04-.02.07 0 .06.08.15.33.64.4.92.24.35-.2.39-.59.24-.93a.93.93 0 0 0-.26-.35c-.42-.33-.93-.2-1.13.3-.05.11-.08.22-.1.34l1.13-.3a4.8 4.8 0 0 1-.6-.6c-.36-.45-.95-.12-1.13.29-.2.47-.29.97-.3 1.49l1.02-.59a.83.83 0 0 1-.45-.69c-.05-.85-1.4-.86-1.34 0Zm2.77 9.27a5 5 0 0 0 .6 1.14c.4.55 1.2.34 1.26-.35 0-.04.07-.54.05-.56l-.58.36.14.19c.17.21.38.4.65.47a.8.8 0 0 0 .64-.09c.12-.08.2-.17.27-.3l.07-.17c.1-.32-.1-.37-.59-.16.27.82 1.57.47 1.3-.36-.2-.57-.74-.94-1.34-.71-.24.1-.45.27-.56.5-.04.08-.17.4-.13.48l.78-.45-.1-.13a1.12 1.12 0 0 0-1.29-.52c-.63.22-.6.9-.65 1.46l1.25-.34a3.73 3.73 0 0 1-.47-.82c-.32-.8-1.62-.45-1.3.36Z"/><path d="M24.14 50.98c-.49.37-.89.8-1.16 1.35-.34.73.46 1.3 1.06.83a1270.2 1270.2 0 0 1 .63-.5l.1-.07c.1-.08.04-.07-.18.04a7.53 7.53 0 0 0-.3-.07l-.25-.24-.04-.17c0-.06 0-.07-.01-.02-.03.02-.04.18-.04.2a.9.9 0 0 0 .1.6c.1.17.27.32.46.37a.8.8 0 0 0 .27.04c.08 0 .15-.02.22-.04.1-.03.07-.04-.1-.03l-.3-.18.05.04-.18-.3.02.05.06-.52-.02.04c-.4.76.76 1.45 1.16.68a.76.76 0 0 0-.14-.95.81.81 0 0 0-.53-.22c-.11 0-.24.07-.34.06l.34.09-.05-.04.24.25-.02-.06.09.35c-.01-.09 0-.04.03-.17.04-.16.04-.33 0-.5a.8.8 0 0 0-.63-.61c-.34-.06-.57.11-.83.31l-.76.6 1.06.82c.16-.33.36-.64.66-.86.3-.22.44-.59.25-.93-.17-.28-.63-.45-.92-.24Zm-2.64 7.62-.33 1.62c-.14.69.6 1.09 1.13.66.15-.13.29-.29.38-.46.07-.11.15-.35.19-.41l-.24.24a.53.53 0 0 0 .06-.04l-.34.09.08-.01a7.53 7.53 0 0 0-.34-.1c-.11-.04-.11-.22-.08.01 0 .06.02.11.04.16.06.2.17.39.34.51.16.12.34.18.54.18a.7.7 0 0 0 .34-.1.24.24 0 0 0 .15-.09c.12-.08.09-.07-.09 0l-.34-.08c.02 0 .03.02.04.05.29.82 1.59.47 1.3-.36-.13-.35-.31-.68-.66-.86a.9.9 0 0 0-.6-.08c-.2.05-.31.18-.48.26l.34-.09h-.08l.35.1c.12.2.15.24.1.09l-.02-.18a1.26 1.26 0 0 0-.15-.34.88.88 0 0 0-.75-.43c-.3 0-.58.18-.72.45-.12.23-.11.36-.32.53l1.12.66.34-1.62c.18-.86-1.12-1.22-1.3-.37Zm-.51 6.9a13.9 13.9 0 0 0-.26 2.2c-.01.5.59.83 1.02.58.2-.12.34-.27.45-.48.04-.07.15-.25.13-.32l-.03.04c-.1.04-.22.07-.34.1h-.03l-.24-.24c.08.1.07.09.08.2.04.55.7.92 1.14.47l.16-.15a.3.3 0 0 1-.3-.02c-.05-.1-.1-.2-.17-.3l.04.08c.12.35.45.58.82.48.33-.1.6-.49.48-.84-.35-.95-1.37-.83-1.98-.2l1.15.47c-.05-.65-.38-1.36-1.15-1.3-.31 0-.59.2-.76.46l-.14.3c-.05.12-.13.16 0 .08l1.02.58c.02-.61.08-1.22.2-1.83.17-.85-1.13-1.2-1.3-.36Zm.66 7.73c.16.6.34 1.2.55 1.77.18.48.74.67 1.13.3a1.26 1.26 0 0 0 .39-.9c.01-.29-.02-.05 0-.06l-.33.09h.09a7.56 7.56 0 0 0-.34-.1c-.1-.04-.07-.08 0 .05l.12.18a.8.8 0 0 0 1.1.2.9.9 0 0 0 .24-.25l.08-.17c.09-.17.01-.13-.23.14h-.36l-.15-.14a7.61 7.61 0 0 1-.1-.34v.08c0 .87 1.34.87 1.35 0a.9.9 0 0 0-.74-.9.82.82 0 0 0-.66.14.9.9 0 0 0-.23.24l-.05.09c-.11.22-.08.22.1-.02l.34-.09-.06.01.34.1c.19.09.1.05.02-.07a1 1 0 0 0-.2-.27.89.89 0 0 0-.92-.17 1.1 1.1 0 0 0-.58.51c-.07.14-.1.27-.13.41-.01.06 0 .24-.04.28l1.13.3a17.7 17.7 0 0 1-.56-1.77c-.22-.84-1.51-.49-1.3.36Zm.68 6.46c.24.71.55 1.4.93 2.05.28.47.88.41 1.16 0 .08-.11.13-.23.17-.36 0-.04 0-.07.02-.12.07-.26 0-.25-.2.04h-.36c-.19-.06-.1-.05 0 .06a1 1 0 0 0 .25.21c.2.11.42.15.64.13.5-.03.85-.37 1.02-.82.3-.82-1-1.18-1.3-.36.09-.23.3-.1.26-.21-.02-.08-.18-.18-.25-.22a.88.88 0 0 0-.73-.07.92.92 0 0 0-.5.44c-.1.18-.07.45-.18.6h1.16a9.16 9.16 0 0 1-.8-1.73c-.27-.82-1.57-.47-1.29.36Zm1.77 7.71c0 .38.06.75.18 1.1.08.26.28.45.56.48.24.03.55-.08.66-.32l.23-.48c.04-.08.08-.15.1-.23l.06-.11c.04-.07.04-.07 0 0l-.3.17.05-.01h-.36l-.07-.04-.24-.24c-.07-.11 0-.02.02.06l.07.21.14.43c.12.34.47.57.83.47.34-.1.6-.49.47-.84-.19-.55-.35-1.47-1.13-1.37-.6.08-.8.82-1.03 1.3l1.23.16a2.43 2.43 0 0 1-.13-.74c0-.36-.3-.7-.67-.68a.69.69 0 0 0-.67.68Zm6.18.82-.1.93c-.04.28.23.58.49.65.3.08.58-.06.75-.31l.37-.52.16-.24.07-.1c.1-.13.09-.12-.04.03l-.34.09h.07a7.53 7.53 0 0 0-.34-.1c-.14-.23-.18-.27-.14-.13l.04.17.07.33c.05.24.07.51.2.72.1.2.3.37.52.44.35.1.63-.08.83-.35.22-.3.05-.76-.24-.93-.34-.2-.7-.05-.92.25l-.02.03.58-.33h-.04l.34.1c.12.05.19.38.12.05l-.06-.28-.1-.5c-.08-.36-.3-.7-.66-.8-.4-.11-.73.12-.96.43-.23.3-.44.63-.66.94l1.25.35.11-.93c.04-.36-.34-.67-.67-.67-.4 0-.63.32-.68.68Zm.65-12.35a9.08 9.08 0 0 0-.24 2.2c.01.64.94.97 1.26.35l.4-.81c.1-.2.17-.45.35-.59l-.3.18.01-.02-.65-.5.26.97c.1.4.62.64.98.4l.19-.12c.72-.48.05-1.65-.68-1.17l-.19.13 1 .4c-.1-.32-.18-.64-.26-.96a.68.68 0 0 0-.65-.5c-.95.02-1.27 1.2-1.62 1.9l1.25.35c0-.62.05-1.23.19-1.84.18-.85-1.11-1.21-1.3-.37Zm-1.29-10.11.1 1.59c.03.67.88.92 1.25.34l.78-1.24h-1.16c.1.16.15.31.16.5.03.6.7.88 1.15.48.34-.3.56-.68.72-1.1l-.98.4v.02l-.18-.3.03.1c.14.33.45.57.83.46.32-.08.61-.49.47-.83a1.34 1.34 0 0 0-.48-.62c-.38-.29-.84.04-.98.4-.08.21-.22.36-.38.51l1.14.48a2.54 2.54 0 0 0-.34-1.18.68.68 0 0 0-1.16 0l-.78 1.24 1.25.34-.09-1.59c-.05-.87-1.4-.87-1.35 0Zm.36-8.94a8.7 8.7 0 0 0-.04 1.02c.01.47.58.9 1.01.59.23-.16.36-.35.44-.61l.05-.2c0-.06.04-.06 0-.02-.24.22-.49.53-.86.08.04.05.03.04 0-.02l.08.22c.06.11.14.22.23.3.28.28.69.34 1.02.14a.69.69 0 0 0 .25-.92.68.68 0 0 0-.92-.25l-.05.03.34-.09c.04 0 .36.18.34.19.01.03.01.03 0 0a1.11 1.11 0 0 0-.04-.1 1.18 1.18 0 0 0-.22-.37.86.86 0 0 0-.87-.24.9.9 0 0 0-.58.6l-.05.2-.02.1c-.02.05-.02.05 0 0a.33.33 0 0 1 .18-.2l1.01.58c0-.34.01-.69.05-1.03.05-.35-.34-.69-.67-.68-.4.02-.62.3-.67.68Zm-.4-6.94c-.13.5-.07 1 .2 1.45.31.53 1.03.36 1.22-.17.08-.2-.03.12.04-.08.02-.08.05-.04-.02 0-.2.1-.49.03-.55-.24.09.35.49.57.83.47.36-.1.56-.47.47-.83-.12-.52-.68-.8-1.17-.67-.5.12-.73.55-.9.99l1.24-.16c-.07-.12-.08-.11-.1-.25.02.07.01-.02.01-.04.01-.2-.02.08.02-.12.09-.34-.11-.74-.47-.83-.35-.07-.73.11-.83.48Zm-19.23-1.59c-.2.26-.38.53-.54.82-.26.47.19 1.21.76 1l.62-.24-.83-.47c.03.1.05.17.05.27 0 .34.3.7.67.68.33-.03.62-.11.92-.26.33-.15.41-.63.24-.92-.2-.34-.59-.4-.92-.24a.97.97 0 0 1-.24.06l.67.68a2 2 0 0 0-.1-.64c-.11-.32-.46-.6-.83-.47l-.61.24.76.99c.16-.3.33-.57.53-.83.22-.29.04-.75-.24-.92-.34-.2-.7-.05-.91.25Zm-3.81 7.59c-.26.56-.48 1.14-.65 1.73-.12.37.13.72.47.84.28.1.6.04.84-.12.11-.08.18-.15.26-.24.31-.37-.11.1-.36-.2l-.18-.3c-.03-.13 0 .13 0 .13 0 .1.03.21.09.3.1.18.29.32.48.38.36.1.83-.04.99-.41.14-.34.1-.73-.24-.93-.29-.16-.78-.09-.92.25 0-.02.02-.04.04-.05l.3-.18.4.12.18.3c.03.13 0-.18 0-.21a.85.85 0 0 0-.2-.36.92.92 0 0 0-1.22-.11c-.08.05-.15.12-.22.2-.28.33-.09.05.12.13l.47.83c.14-.48.31-.95.52-1.41.15-.34.1-.73-.24-.93-.3-.17-.78-.1-.93.24Zm-1.49 7.97a6.03 6.03 0 0 0 .01 2.3c.08.4.49.54.83.48.2-.03.38-.14.52-.3a1.87 1.87 0 0 0 .23-.33c.04-.06.03-.06-.05 0h-.35l.09.03-.3-.17c-.05-.1-.05-.1 0 0l.06.17c.07.14.17.24.3.33.3.2.57.19.9.04.33-.15.4-.64.24-.93-.2-.34-.6-.39-.92-.24l-.07.03.52-.07-.08-.02.3.18c.02.09.02.1 0 .03a1.36 1.36 0 0 0-.09-.2.85.85 0 0 0-.87-.49.99.99 0 0 0-.6.3c-.09.09-.16.18-.22.28 0 .03-.03.06-.04.09-.09.12-.06.1.07-.04l.83.47a4.2 4.2 0 0 1 0-1.58c.06-.36-.1-.73-.48-.83-.33-.09-.76.11-.83.47Zm.96 9.76.56 1.14c.17.33.62.41.92.24a1 1 0 0 0 .49-.62c.03-.12.05-.27.04-.4-.01-.14.05-.1-.03-.04l-.3.18h-.02a7.4 7.4 0 0 0-.34-.08c.23.13.34.35.69.35.4 0 .49-.24.73-.48l-.3.18-.39-.25c.06.36.51.56.83.47.39-.1.53-.46.48-.83-.07-.4-.45-.7-.84-.75-.47-.04-.77.2-.99.59l.25-.25-.07.06.34-.1h-.08l.34.1c-.08-.05-.29-.28-.47-.33a.84.84 0 0 0-.73.14 1.1 1.1 0 0 0-.39.57c-.04.14 0 .43-.06.52l.24-.24-.09.05.92.24-.56-1.14c-.4-.78-1.55-.1-1.17.68Zm4.15 10.05c-.02.58.58.9 1.09.75a.92.92 0 0 0 .53-.46l.06-.12c.1-.15 0-.1-.3.15-.15-.02-.09-.02.01.03.32.18.74.08.92-.24.18-.31.08-.75-.24-.92-.33-.19-.7-.3-1.08-.14a.97.97 0 0 0-.53.56l-.03.06c.24-.27.48-.29.73-.07l.18.3.01.1c.02-.35-.32-.7-.67-.67a.68.68 0 0 0-.68.67Zm24.86-33.5c.08.4.22.78.4 1.16.16.34.61.39.91.24.17-.09.31-.24.4-.4l.07-.16c.15-.31 0 .15-.35.12a7.53 7.53 0 0 0-.34-.1c-.07-.03.11.1.11.1l.21.12c.17.07.35.09.54.06.4-.07.64-.33.8-.7.14-.33-.16-.74-.47-.83-.39-.1-.7.14-.83.47.15-.29.35-.35.58-.19a.31.31 0 0 0-.05-.05.94.94 0 0 0-.37-.2.83.83 0 0 0-.63.09.92.92 0 0 0-.35.4l-.06.13c-.05.15-.02.01.06-.02l.92.24a3.6 3.6 0 0 1-.26-.83c-.07-.36-.5-.57-.83-.48-.36.1-.53.47-.46.83Zm1.56 7.74.26 1.28c.14.71 1.09.58 1.3 0 .06-.2.18-.32.33-.45l-1.06-.14.35.82c.14.31.66.44.92.24a1.32 1.32 0 0 0 .5-.62l.03-.09c.11-.2-.1-.26-.62-.19-.05.36.35.68.67.68.4 0 .63-.31.68-.68.07-.56-.45-1.07-1-1.07a.97.97 0 0 0-.7.31c-.08.1-.14.2-.2.3-.04.07-.17.3-.04.2l.92.24-.35-.82c-.18-.42-.77-.4-1.06-.13-.32.29-.53.64-.68 1.05h1.3l-.26-1.29c-.17-.85-1.47-.5-1.3.36Zm1.18 10.34c-.04.34 0 .69.09 1.01.1.4.62.66.98.4.24-.16.38-.34.49-.61l.07-.21c.04-.15 0 .05-.12.06h-.36c-.1-.04-.18-.1-.2-.2-.01-.05 0-.04.02.03l.04.13c.08.2.18.37.36.51.36.3.78.25 1.14-.03.29-.22.23-.72 0-.95-.28-.29-.67-.23-.95 0-.02 0-.03.02-.05.03l.3-.17h-.05.35c.08.02.2.27.15.12a1.53 1.53 0 0 0-.14-.34.92.92 0 0 0-.88-.45c-.31.03-.57.23-.74.5-.07.1-.12.23-.16.36-.01.04-.04.1-.04.14 0 .06-.02-.01.1-.1l.98.42a1.58 1.58 0 0 1-.04-.65c.04-.37-.34-.68-.67-.68-.4 0-.63.32-.67.68Zm-.38 7.96c-.03.44 0 .88.07 1.31.08.51.8.64 1.13.3a6.78 6.78 0 0 1 .68-.62l-.99-.4c.04.12.04-.02.03.1 0-.09-.05.1 0 .02a.7.7 0 0 0 .23.92c.31.18.75.08.92-.24.2-.36.26-.77.12-1.16-.13-.37-.61-.68-.98-.4-.34.24-.66.51-.95.82l1.12.3a4.5 4.5 0 0 1-.02-.96c.03-.35-.33-.69-.67-.67-.4.02-.65.3-.68.68Zm-.43 8.83a4.5 4.5 0 0 0-.52 1.33.7.7 0 0 0 .47.84c.37.1.7-.13.83-.48.04-.1.17-.35.24-.45h-.95a.36.36 0 0 1-.07-.33c-.06.36.1.73.47.83.32.1.77-.1.83-.47.06-.37 0-.7-.27-.98-.24-.25-.73-.29-.95 0-.26.32-.45.65-.6 1.04.43.13.87.24 1.3.36.08-.37.2-.67.4-1a.69.69 0 0 0-.25-.92.68.68 0 0 0-.93.23Zm4.93 2.7c-.28.37-.41.82-.43 1.28-.02.26.18.52.41.61.26.11.52.05.74-.14l1-.85-1.07-.14c-.02-.04-.01-.1 0-.14 0-.03.07-.14 0-.03-.2.31-.07.74.24.92.32.2.73.07.92-.24.23-.36.22-.83 0-1.2-.23-.4-.72-.42-1.05-.13l-1 .85 1.15.48c0-.2-.04.1 0-.1l.07-.21.05-.1.12-.17c.22-.3.05-.76-.24-.93-.34-.2-.69-.05-.91.24Zm2.48-8.85c-.1.51-.15 1.03-.15 1.56 0 .66.93.93 1.26.34.2-.37.43-.69.73-.98l-.82.1-.04-.03-.18-.3c0-.04.04-.17 0-.02a.9.9 0 0 0-.06.32c-.01.21.05.43.18.6.14.2.38.33.62.33.14 0 .3-.04.41-.1l.07-.04c.1-.07.07-.08-.1-.02a7.53 7.53 0 0 0-.34-.09c-.18-.09-.2-.2-.17-.32-.05.36.09.72.47.83.31.09.77-.1.83-.47.05-.39.03-.78-.26-1.07a.83.83 0 0 0-.58-.23c-.14 0-.3.05-.41.11-.03.02-.18.08-.1.07h.36l-.05-.02.3.17c.04.38.08.47.12.29a1.1 1.1 0 0 0 .06-.46.83.83 0 0 0-.45-.71.7.7 0 0 0-.81.1c-.38.37-.7.8-.95 1.26l1.26.34c0-.4.03-.8.1-1.2.07-.36-.1-.73-.47-.83-.33-.1-.77.1-.83.47Zm.91-9.31c-.2.46-.2 1-.05 1.47.2.66 1.07.63 1.3 0 .1-.32.3-.58.56-.8l-1.14-.48.04.68c.03.4.29.63.67.68.22.02.42-.05.6-.17.07-.05.14-.1.2-.17l.07-.09c.08-.08.01-.06-.2.06a7.53 7.53 0 0 0-.35-.1l-.11-.11a7.61 7.61 0 0 1-.09-.3c.04-.1.07-.22.1-.34l-.03.05c-.46.74.7 1.42 1.16.68.27-.44.04-1-.43-1.18a.86.86 0 0 0-.72.06.82.82 0 0 0-.25.2l-.05.05c-.1.1-.06.1.1 0l.68.68-.05-.68a.68.68 0 0 0-1.15-.48c-.43.38-.72.86-.91 1.4h1.3a1 1 0 0 1 .04-.75c.14-.34-.15-.74-.47-.83-.38-.11-.68.13-.82.47Zm-.56-11.85.11 1.14c.03.33.23.62.58.66.33.04.66-.15.74-.48.07-.29.17-.55.32-.8h-1.16l.2.37c.24.46.9.4 1.15 0 .03-.04.06-.07.06-.09.07-.06.02-.05-.14.02a.3.3 0 0 1-.22.03l-.24-.24-.01-.05c.26.82 1.56.47 1.3-.36a.94.94 0 0 0-.96-.68c-.43.01-.74.34-.95.68h1.16l-.2-.37c-.23-.45-.92-.44-1.16 0-.2.35-.34.73-.45 1.13l1.32.18-.1-1.14c-.04-.37-.29-.68-.68-.68-.34 0-.7.31-.67.68Zm-3.33-7.56c.17.43.38.8.67 1.15.34.42.98.15 1.13-.3.1-.32.15-.67.12-1.01l-1.26.34c.13.25.31.48.53.66.29.23.68.28.95 0 .24-.23.29-.72 0-.95a1.4 1.4 0 0 1-.22-.21c-.06-.09.04.06-.01-.03l-.09-.15a.65.65 0 0 0-.76-.31c-.27.07-.52.36-.5.65.03.28.02.4-.06.65l1.12-.3a1.72 1.72 0 0 1-.18-.26l-.1-.17-.05-.12c-.14-.34-.45-.58-.83-.47-.32.08-.6.48-.46.83Zm6.79-.53c.05.29.16.56.3.82a.7.7 0 0 0 .77.3c.3-.08.46-.34.49-.65l.1-.95-1.02.59.62.46c.3.22.75.05.92-.24.2-.34.05-.7-.24-.93l-.62-.46c-.2-.14-.5-.11-.68 0-.22.13-.3.34-.33.59l-.1.95 1.26-.34c-.1-.19-.13-.27-.17-.5-.07-.35-.5-.56-.83-.47-.37.1-.53.47-.47.83Zm2.99 8.12c.06.37.15.73.27 1.1.14.42.59.6.99.4.24-.13.4-.36.46-.63.03-.12.04-.25.05-.38v-.13c0 .18-.13.3-.38.37a7.56 7.56 0 0 0-.34-.09c.53.26.95.44 1.55.3.84-.19.49-1.5-.36-1.3-.2.05-.33-.08-.5-.17a.88.88 0 0 0-.96.09c-.2.16-.3.39-.33.64l-.03.3v.02c-.04.15.01.09.16-.18l.98.4c-.11-.36-.2-.72-.27-1.1-.06-.35-.5-.56-.83-.47-.37.1-.53.47-.46.83Zm1.56 9.78-.14 1.03c-.04.3.03.6.31.76.23.14.64.13.82-.1.1-.13.2-.24.35-.3l-.85-.65.02.81a.7.7 0 0 0 .85.66c.22-.05.4-.16.57-.3l.16-.13c0-.01-.22 0-.27-.06l-.18-.3.02.07c.29.82 1.59.47 1.3-.36a.97.97 0 0 0-1-.68c-.18 0-.39.07-.55.17-.14.08-.26.24-.41.28l.85.65-.02-.8c-.01-.42-.43-.8-.86-.66-.37.13-.7.33-.94.64l1.12.66.14-1.03c.05-.36-.08-.72-.47-.83-.3-.09-.77.1-.82.47Zm-1.94 11.2-.27 1.15c-.09.35.1.74.47.83.32.1.63.03.9-.18.2-.18.28-.44.48-.6-.1.05-.2.1-.3.17l.1-.04h-.36l.1.01-.4-.3v.04l.1.23c.1.15.23.26.39.32.16.08.34.08.51.05.06 0 .12-.02.17-.05.27-.08.21-.11-.16-.07l-.24-.25c0 .02.02.03.03.05l-.1-.34v.05c-.04.87 1.3.87 1.35 0a.8.8 0 0 0-.58-.78.97.97 0 0 0-.5-.02c-.06.02-.3.06-.23.07l.35.09-.07-.05.25.25c-.04-.07-.1-.3-.22-.42a.83.83 0 0 0-.75-.2c-.2.06-.37.18-.5.32-.07.09-.14.18-.19.27l-.05.1c-.12.16-.03.16.28-.03l.47.84c.1-.39.2-.77.28-1.15.2-.85-1.1-1.2-1.3-.36Zm-1.42 8.13.3.23c.28.23.75.05.92-.24.2-.35.05-.7-.25-.92l-.3-.23c-.28-.23-.74-.05-.91.24-.2.35-.05.7.24.92Z"/></g><g clip-path="url(#b)" fill="#46A358"><path d="M19.3 44.74c.56-4.63-2.67-8.1-6.12-10.76-2-1.56-3.97-2.85-5.28-5.08a17.35 17.35 0 0 1-1.68-3.7c-.73-2.47.53-6.34 3.66-3.5 1.8 1.64 2.21 3.76 3.59 5.58.77 1.03 1.96 1.58 3.2.93 3.73-1.98.85-8.82.01-11.54-1-3.3-1.54-6.47.16-9.64a22.94 22.94 0 0 1 1.9-3.05 7.1 7.1 0 0 1 1.72-1.67c1.37-.87 2.2-.87 3.71-.41 1.62.5 1.63.58 1.96 2.1a18.04 18.04 0 0 1-.12 6.83c-.6 2.88-2.32 5.42-2.7 8.34-.28 2.15-.09 8.97 3.5 8.33 4.2-.75 3.9-7.4 8.1-8.3 3.49-.74 5.2 3.04 3.72 5.64-.8 1.41-2.14 2.5-3.43 3.47-2.29 1.72-5.09 2.62-7.34 4.36-4.07 3.15-2.72 8.12-1.04 12.18.32.79 1.63.44 1.3-.35-1.13-2.75-2.54-6.1-1.02-8.98 1.41-2.67 5.14-3.6 7.54-5.18 3.25-2.12 7.9-6.12 5.15-10.33-2.3-3.53-6.75-2.35-8.85.6-.64.9-1.13 1.88-1.7 2.82-.25.42-.5.85-.81 1.25l-.65.77c-1.7.38-2.6-.07-2.65-1.35-1.71-3.6.36-7.27 1.52-10.59a19.13 19.13 0 0 0 1.05-7.68c-.12-1.8-.31-4.24-2.03-5.31-1.51-.95-3.83-.4-5.32.33-2.2 1.1-3.56 3.44-4.68 5.52-2.87 5.34.03 10.05 1.1 15.43.14.72.5 2.29.26 3.08l-2.2 1.97a5.89 5.89 0 0 1-.96-1.74c-.42-.93-.87-1.8-1.48-2.62-.98-1.3-2.82-3.46-4.7-3.35-1.82.1-2.9 2.01-3.1 3.6-.28 2.34 1 4.85 2.15 6.84 3.2 5.52 12.13 7.55 11.2 15.17-.1.84 1.26.83 1.36-.01Z"/><path d="M30.99 22.57c.97-4.86-.87-9.31-1.25-14.12-.23-2.87 1-7.46 4.95-6.16 2.93.98 4.05 4.43 3.85 7.19-.14 2.02-1.13 7.94 2.81 7.39 3.39-.48 5.13-6.03 6.77-8.39 1.4-2.02 4.52-4.96 7.25-4.14 4.33 1.3 1.55 6.42-.44 8.44-3.36 3.39-6.94 6.39-9.9 10.17-1.72 2.19-3.2 5.79.6 6.77 1.47.38 2.88-.12 4.2-.72 1.06-.48 2.08-1.05 3.21-1.37 2.07-.58 4.46-.12 3.1 2.4-3.2 5.93-10.52 1.56-15.24 4.05-4 2.1-4.94 6.78-4.56 10.87.08.85 1.43.86 1.35 0-.26-2.85-.03-5.94 1.97-8.2 2.59-2.93 6.04-1.86 9.47-1.93 3.5-.06 8-1.73 8.73-5.59.8-4.22-4.09-3.4-6.6-2.39-1.1.45-2.13 1.15-3.28 1.48-.92.26-2.37.4-3.09-.44-.7-.83-.13-2.22.3-2.92 1.58-2.58 4.01-4.93 6.16-7.05 2.98-2.93 8.04-6.03 7.6-10.8-.33-3.65-3.74-4.99-6.9-3.62a11.8 11.8 0 0 0-4.69 3.76c-1.61 2.13-2.48 5.05-4.4 6.93-.7.68-1.38 2.11-2.93.7-.69-.62-.48-2.3-.4-3.15.09-1.13.33-2.23.3-3.36a8.71 8.71 0 0 0-1.97-5.34c-2.66-3.13-7.23-3-9 .93-1.05 2.35-.58 5.03-.14 7.47.65 3.6 1.6 7.12.86 10.79-.16.84 1.14 1.2 1.3.35Zm-.31 8.43a76.42 76.42 0 0 1-3.12 13.48c-.27.82 1.03 1.17 1.3.36a76.2 76.2 0 0 0 3.13-13.48c.12-.84-1.19-1.2-1.3-.35Zm-16.18 12.97c-.17-3.53-2.65-5.91-5.51-7.72-1.86-1.18-3.89-2.16-5.48-3.7-.68-.66-1.96-1.93-2.03-2.95-.23-3.41 4-.76 4.94.03.65.55 1.62-.39.95-.94-1.47-1.24-4.12-2.86-6.14-1.93-1.64.76-1.37 2.62-.74 3.96 2.64 5.7 12.32 6.36 12.66 13.25.04.86 1.4.86 1.36 0Z"/><path d="M44.84 45.3a17.51 17.51 0 0 1 6.63-5.94c2.48-1.26 5.56-1.47 7.75-3.25 2.52-2.03 2.65-7.02-1.52-6.9-.87.03-.87 1.36 0 1.34 1.65.22 2.32 1.12 2.01 2.69-.33.9-.9 1.61-1.71 2.13-1 .69-2.19 1-3.33 1.36-1.44.45-2.86.93-4.2 1.64a19.03 19.03 0 0 0-6.8 6.25c-.49.72.69 1.38 1.17.67Zm3.67-11.74c-5.73 1.07-7.84 6.7-9.2 11.61-.23.83 1.08 1.19 1.3.36 1.24-4.48 3.02-9.7 8.26-10.68.86-.16.5-1.45-.36-1.29Zm-30.21-20.3a7.25 7.25 0 0 1 2.33-7.36c.44-.38.94-.67 1.48-.87 1.5.32 2.2 1.1 2.1 2.38a7.9 7.9 0 0 1-.3 2.17c-.35 1.44-.98 2.8-1.44 4.2-1.2 3.63-2.91 9.54.31 12.63.32.3.8-.18.48-.48-2.83-2.7-1.38-7.88-.4-11.11.83-2.8 3.1-6.53 1.57-9.47-1.2-2.3-3.95-.43-5.12.91a7.93 7.93 0 0 0-1.67 7.18c.1.42.76.24.65-.18Zm14.29 10.8c.39-.85 1.17-2.05 2.22-2.19 1.6-.22 2.43 1.77 1.57 3.08-.8 1.23-2.34 2.1-3.67 2.62-2.2.88-3.68 2.09-5.29 3.82-.29.31.19.79.48.47.97-1.05 1.96-2.15 3.23-2.88 1-.58 2.17-.8 3.18-1.37 1.23-.7 3.22-2.21 3.37-3.73.12-1.23-1.2-2.65-2.42-2.72-1.48-.1-2.72 1.4-3.25 2.57-.18.38.4.72.58.33Zm-25.29.78c.15-1.17.6-1.6 1.34-1.29.26 0 .47.1.65.28.36.23.6.57.8.93.38.65.56 1.4.84 2.09.36.88.83 1.6 1.63 2.12.37.24.7-.34.35-.58-1.99-1.3-1.43-4.67-3.91-5.49-1.5-.49-2.99.78-2.28 2.27.18.39.77.05.58-.33Zm24.23-17.26c-.35-1.92 1.7-3.45 3.27-2.05.87.78 1.2 2.2 1.2 3.31.01 1.5-.68 2.86-.39 4.37.08.42.74.24.66-.18-.38-1.9.7-3.72.21-5.69-.28-1.17-.87-2.49-2.1-2.93-2.23-.8-3.87 1.33-3.5 3.35.08.42.73.24.65-.18Zm-.33 4.4a13.7 13.7 0 0 1 1.55 6.81c0 .43.67.43.68 0a14.4 14.4 0 0 0-1.65-7.14c-.19-.39-.77-.05-.59.33Zm17.53-1.91c.66-1.47 1.9-2.4 3.32-3.1.41-.2.84-.38 1.28-.52 1.9.64 2.39 1.52 1.45 2.66-.45.7-1.1 1.33-1.67 1.94a68.9 68.9 0 0 1-6.91 6.51c-.34.28.14.75.47.47a68.69 68.69 0 0 0 6.29-5.84c1.18-1.25 3.45-3.1 2.95-5.07-.98-3.92-6.93.75-7.76 2.62-.17.39.41.72.59.33Zm-3.81 9.92a8.9 8.9 0 0 0-3.72 6.47c-.04.43.63.42.67 0a8.18 8.18 0 0 1 3.39-5.9c.35-.25 0-.83-.34-.57Zm4.28 11.11c.44-.25.88-.53 1.34-.76.35-.19.72-.33 1.11-.44.73-.3.97.26.73 1.67-.48.93-3.07.97-3.87.92-2-.12-3.9-.66-5.88-.06-.41.12-.23.77.18.64 2.38-.72 4.7.33 7.1.07 1.3-.15 3.14-.74 3.79-1.98.36-.7.27-1.61-.51-1.99-1.3-.62-3.32.75-4.34 1.36-.37.23-.03.8.34.58Zm-10.06 2.49c-3.52 2.81-4.8 7.08-5.15 11.38-.04.43.64.43.67 0 .34-4.14 1.58-8.2 4.96-10.91.34-.27-.15-.74-.48-.47Zm-15.14 1.13c-1.04 1.79-1.01 3.74-.78 5.74.2 1.68.41 3.33 1.59 4.63.29.32.77-.15.48-.47-1.16-1.28-1.3-3.06-1.45-4.7-.17-1.7-.14-3.34.75-4.86.21-.37-.37-.7-.59-.34Zm-18.66-4.39c-1.95.03-1.18 2.06-.13 2.79 1.3.9 2.8 1.52 4.18 2.29 1.64.9 2.3 2.43 3.56 3.7.3.32.78-.16.47-.46-1.25-1.27-1.85-2.79-3.46-3.7-.81-.45-1.66-.84-2.48-1.28-.42-.22-.85-.45-1.25-.7l-.5-.3c-.8-.3-.93-.86-.38-1.67.43 0 .43-.67 0-.67Z"/><path d="M56.24 33.4c.02.9-.4 1.38-1.26 1.46l-1.24.49-1.85.73-4.34 1.71c-.4.16-.22.8.18.65l4.96-1.96c1.22-.48 2.78-.83 3.86-1.58.95-.66.97-2.03-.32-2.16-.42-.05-.42.62 0 .66Zm-10.24 5.32a18.29 18.29 0 0 0-4.25 5.92c-.18.39.4.73.59.34.98-2.2 2.37-4.14 4.14-5.79.32-.3-.16-.77-.48-.47Zm-31.45 2.91c.52.76.85 1.57 1.01 2.47.07.42.73.25.65-.18a6.67 6.67 0 0 0-1.07-2.62c-.25-.35-.83-.02-.59.33Z"/></g><defs><clipPath id="a"><path fill="#fff" transform="translate(3 45)" d="M0 0h55v48h-55z"/></clipPath><clipPath id="b"><path fill="#fff" d="M0 0h61v46h-61z"/></clipPath></defs></svg>