<svg xmlns="http://www.w3.org/2000/svg"><style>:root svg:not(:target){display:none}</style><svg viewBox="0 0 12 10" fill="none" id="arrow-link"><path d="M.67 4.82a.5.5 0 0 1 .43-.5h10.07a.5.5 0 0 1 .06 1h-10.06a.5.5 0 0 1-.5-.5Z" fill="#3D3D3D"></path><path d="M6.78 1.16a.5.5 0 0 1 .65-.76l.06.05 4.03 4.01c.18.18.2.46.05.65l-.05.06-4.03 4.02a.5.5 0 0 1-.76-.65l.05-.06 3.68-3.66-3.68-3.66Z" fill="#3D3D3D"></path></svg><svg viewBox="0 0 14 12" fill="none" id="arrow"><path d="M12.81 5.8h-11.25m6.71-4.52s4.54 2.44 4.54 4.51c0 2.08-4.54 4.52-4.54 4.52" stroke="#fff" stroke-width="1.5" stroke-linecap="round" stroke-linejoin="round"></path></svg><svg viewBox="0 0 24 24" fill="none" id="cart"><path d="M17.16 20.25h-7.27a5.63 5.63 0 0 1-5.62-5.62v-5.77a8.53 8.53 0 0 0-3.85-7.14.94.94 0 1 1 1.03-1.57c1.38.91 2.5 2.1 3.3 3.48.16.2 1.55 1.67 3.83 1.67h10.8a4.64 4.64 0 0 1 4.48 5.74l-1.25 4.95a5.62 5.62 0 0 1-5.45 4.26Zm-11.25-13.6c.15.71.23 1.45.23 2.2v5.78a3.75 3.75 0 0 0 3.75 3.74h7.27a3.75 3.75 0 0 0 3.63-2.83l1.25-4.96a2.76 2.76 0 0 0-2.67-3.4h-10.8a6.99 6.99 0 0 1-2.66-.54Zm3.51 16.18c0-.65-.52-1.17-1.17-1.17-1.55.06-1.55 2.28 0 2.34.65 0 1.17-.52 1.17-1.17Zm9.33 0c0-.65-.52-1.17-1.17-1.17a1.17 1.17 0 1 0 1.17 1.17Zm1.56-12.85a.94.94 0 0 0-.94-.93h-10.42c-1.24.05-1.24 1.82 0 1.87h10.42c.52 0 .94-.42.94-.94Z" fill="#3D3D3D"></path></svg><svg viewBox="0 0 18 18" fill="none" id="envelope"><path d="M13.62 6.52s-2.67 3.2-4.63 3.2-4.66-3.2-4.66-3.2" stroke="#46A358" stroke-width="1.5" stroke-linecap="round" stroke-linejoin="round"></path><path clip-rule="evenodd" d="M1.04 8.97c0-5.7 1.99-7.6 7.94-7.6s7.94 1.9 7.94 7.6c0 5.7-1.99 7.6-7.94 7.6s-7.94-1.9-7.94-7.6Z" stroke="#46A358" stroke-width="1.5" stroke-linecap="round" stroke-linejoin="round"></path></svg><svg viewBox="0 0 14 18" fill="none" id="location"><path clip-rule="evenodd" d="M9.1 7.93a2.08 2.08 0 1 0-4.18 0 2.08 2.08 0 0 0 4.17 0Z" stroke="#46A358" stroke-width="1.5" stroke-linecap="round" stroke-linejoin="round"></path><path clip-rule="evenodd" d="M7 16.5c-2.42 0-6.25-4.2-6.25-8.67a6.3 6.3 0 0 1 6.25-6.33 6.3 6.3 0 0 1 6.25 6.33c0 4.47-3.83 8.67-6.25 8.67Z" stroke="#46A358" stroke-width="1.5" stroke-linecap="round" stroke-linejoin="round"></path></svg><svg viewBox="0 0 18 18" fill="none" id="logout"><path d="M17.16 9.1h-10.03m7.59-2.43 2.44 2.43-2.44 2.43m-2.09-6.17c-.27-2.99-1.39-4.07-5.83-4.07-5.92 0-5.92 1.93-5.92 7.71s0 7.7 5.92 7.7c4.44 0 5.56-1.08 5.83-4.06" stroke="#fff" stroke-width="1.5" stroke-linecap="round" stroke-linejoin="round"></path></svg><svg viewBox="0 0 8 12" fill="none" id="next-page"><path d="M1.38.75s5.25 3.1 5.25 5.25c0 2.14-5.25 5.25-5.25 5.25" stroke="#3D3D3D" stroke-width="1.5" stroke-linecap="round" stroke-linejoin="round"></path></svg><svg viewBox="0 0 19 19" fill="none" id="phone"><path d="M11.96 1.3a6.64 6.64 0 0 1 5.87 5.85m-5.87-2.91a3.69 3.69 0 0 1 2.92 2.92" stroke="#46A358" stroke-width="1.5" stroke-linecap="round" stroke-linejoin="round"></path><path clip-rule="evenodd" d="M6.42 12.58c-5.75-5.75-4.93-8.38-4.33-9.23.08-.13 2-3 4.06-1.32 5.1 4.2-1.36 3.6 2.92 7.9 4.3 4.28 3.7-2.18 7.9 2.92 1.69 2.06-1.19 3.98-1.32 4.06-.85.6-3.48 1.42-9.23-4.33Z" stroke="#46A358" stroke-width="1.5" stroke-linecap="round" stroke-linejoin="round"></path></svg><svg viewBox="0 0 20 20" fill="none" id="search"><path d="M14.57 16a8.98 8.98 0 1 1 1.38-1.38c.08.06.18.1.24.16l3.46 3.45c.27.28.4.6.33.97a1 1 0 0 1-1.65.54c-.27-.25-.52-.52-.78-.78l-2.85-2.84-.13-.12Zm1.39-7.01a6.97 6.97 0 0 0-6.98-6.99 6.98 6.98 0 1 0 6.98 6.99Z" fill="#3D3D3D"></path></svg></svg>