<svg viewBox="0 0 68 87" fill="none" xmlns="http://www.w3.org/2000/svg"><g clip-path="url(#a)" fill="#727272"><path d="M7.25 40.78c16.77-1.76 33.69.93 50.42-1.49.78-.11.45-1.3-.33-1.18-16.61 2.4-33.43-.3-50.1 1.44-.77.08-.78 1.3 0 1.23Z"/><path d="M7.08 39.57c-1.63.51-1.43 2.64-.56 3.77 1.42 1.85 4.62 1.9 6.7 1.7.8-.08.8-1.3 0-1.23-1.34.12-2.74.11-4.05-.27-.69-.2-1.4-.49-1.8-1.13-.2-.33-.59-1.46.04-1.65.76-.24.44-1.42-.33-1.19Zm47.7.11c.87-.06 1.7-.2 2.57-.32 1.37-.18 2.08.18 2.32 1.62.2 1.19-.56 1.54-1.62 1.87-.5.16-1.03.26-1.55.36-1.38.27-2.78.4-4.19.46-.79.03-.8 1.26 0 1.23 2.41-.09 9.17-.18 8.9-3.97a3.9 3.9 0 0 0-1.84-2.68c-1.28-.63-3.28.11-4.6.2-.78.05-.78 1.27.01 1.23Z"/><path d="M9.05 44.77c-.16 2.6-3.13 4.07-4.7 5.86a16.8 16.8 0 0 0-2.9 4.75 20.6 20.6 0 0 0-1.04 11.73c1.59 7.98 7.65 14.58 15.22 17.4.75.29 1.07-.9.33-1.18-7.86-2.94-13.98-10.3-14.66-18.75a18.3 18.3 0 0 1 2.78-11.57c1.86-2.8 5.97-4.6 6.2-8.24.06-.78-1.18-.78-1.23 0Zm46.77-.52c0 3.23 2.36 5.26 4.76 7.06 2.06 1.55 3.66 3.06 4.67 5.49.89 2.1 1.38 4.38 1.49 6.66.4 8.4-4.5 16.18-12.02 19.85-.71.35-.09 1.4.62 1.06a22.48 22.48 0 0 0 12.58-18.07c.33-3.92-.35-8.23-2.35-11.67-2.2-3.79-8.51-5.52-8.52-10.38 0-.8-1.23-.8-1.23 0Z"/><path d="M15.27 83.62c-.8 1.76.63 3.29 2.4 3.37 1.94.1 3.97-.35 5.9-.44 2.25-.1 4.5-.1 6.73-.07 8.37.13 16.74.77 25.07-.36.28-.04.42-.35.45-.6.06-.69 0-1.2-.2-1.84-.23-.75-1.42-.43-1.18.33.2.5.26 1 .14 1.51l.46-.6c-6.5.89-13.05.67-19.59.46-3.16-.1-6.34-.19-9.5-.13a85.48 85.48 0 0 0-6.7.38c-.59.06-3.8.56-2.92-1.4.32-.71-.74-1.33-1.06-.61Zm-8.19-32.4a17.66 17.66 0 0 0-.9 21.3c.22.33.75.02.53-.3a17.04 17.04 0 0 1 .81-20.57c.24-.3-.19-.73-.44-.43Zm.33 23.58c.4.59.87 1.12 1.38 1.61.29.27.73-.16.44-.43-.48-.45-.9-.95-1.29-1.48-.22-.33-.75-.02-.53.3Zm3.46 3.54c.4 0 .4-.62 0-.62s-.4.62 0 .62Zm43.76-34.06c-.32 1.18-.59 2.37-.12 3.55.43 1.1 1.3 2.08 2.05 2.98 1.78 2.17 5.44 4.35 5.61 7.36.02.4.64.4.62 0-.13-2.25-1.8-3.7-3.34-5.16a30.72 30.72 0 0 1-2.78-3.03c-.58-.72-1.23-1.49-1.56-2.36-.4-1.06-.17-2.1.11-3.17.1-.38-.5-.55-.59-.17Zm7.81 15.32.26 2.36c.04.39.66.4.61 0l-.26-2.36c-.04-.39-.65-.4-.61 0Zm.06 3.98c.04.22 0 .44-.08.65-.06.16.07.34.21.38.18.05.32-.06.38-.21.13-.32.14-.65.08-.99-.07-.38-.67-.22-.6.17Zm-26.76-4.5a8 8 0 0 1 7.47-4.45c3.83.2 7.87 3.51 5.18 7.44-1.58 2.3-4.4 3.78-6.5 5.6a55.4 55.4 0 0 0-6.38 6.59c-.5.6.36 1.47.87.86a61.1 61.1 0 0 1 10.05-9.5c2.47-1.91 5.2-4.8 3.7-8.16-1.24-2.78-4.67-4.14-7.56-4.06-3.4.1-6.33 2.1-7.9 5.06-.36.7.7 1.32 1.07.62Z"/><path d="M35.45 58.13c-2.64-2.95-5.93-6-10.2-5.78a6.78 6.78 0 0 0-6.35 5.7c-.56 3.85 2.32 7.21 5.12 9.44 3.45 2.73 8.65 3.67 11.23 7.38.45.64 1.52.03 1.06-.62-1.6-2.31-3.95-3.5-6.43-4.7-3.16-1.52-6.27-3.4-8.3-6.33-2.27-3.26-1.9-8.25 2.5-9.45 4.3-1.17 7.91 2.34 10.5 5.23.52.59 1.4-.28.87-.87Z"/></g><g clip-path="url(#b)" fill="#46A358"><path d="M31.47 12.63c-1.19 2.15-3 3.88-5.33 4.77-.9.35-2.1.33-1.99-.91.08-.78.92-1.45 1.53-1.81 1.03-.62 2.36-.83 3.48-1.3.72-.32.1-1.38-.63-1.07-1.99.87-4.17 1.07-5.3 3.16-.6 1.11-.8 2.67.56 3.3 1.48.7 3.51-.42 4.74-1.2a11.8 11.8 0 0 0 4-4.33c.39-.68-.68-1.3-1.06-.61Z"/><path d="M28.9 12.12c-1.5.16-2.99.17-4.47-.1a13.65 13.65 0 0 1-2.9-.9c-.63-.79-.57-1.23.19-1.33 2.23-1.7 5.71.09 7.9.92.75.28 1.07-.9.33-1.18-1.9-.72-4-1.8-6.09-1.57-1.2.13-3.97.64-4.29 2.14-.74 3.47 7.54 3.44 9.33 3.25.78-.1.79-1.32 0-1.23Z"/><path d="M30.35 9.55c-1.87-1.47-3.53-3.76-3.44-6.25.04-1.1.75-1.57 1.77-1.07.57.27.96.97 1.27 1.5a12.53 12.53 0 0 1 1.28 4.01c.14.77 1.33.45 1.18-.32-.4-2.07-.95-4.22-2.5-5.76-.9-.9-2.42-1.95-3.49-.73-2.5 2.86.78 7.69 3.06 9.48.62.49 1.5-.37.87-.86Z"/><path d="M32.39 7.76c.27-1.97 1.13-5.7 3.41-6.35 2.12-.58 1.9 2.8 1.32 3.91-.6 1.13-1.77 2.18-2.62 3.13-.53.58.34 1.45.87.86 1.22-1.35 3.05-2.9 3.3-4.81.21-1.48.1-3.7-1.54-4.36-1.5-.6-2.98.76-3.83 1.82a11 11 0 0 0-2.1 5.46c-.11.78 1.07 1.11 1.19.34Z"/><path d="M35.45 9.46c1.44-1.19 4.1-2.01 5.86-.94 2.27 1.4-.95 2.23-2.01 2.3-1.13.08-2.27 0-3.4-.12-.78-.1-.78 1.13 0 1.22 1.85.21 4.33.48 6.05-.42 1.07-.56 1.83-1.93 1.18-3.07-.74-1.29-2.8-1.6-4.13-1.56a7.18 7.18 0 0 0-4.41 1.73c-.62.5.26 1.37.86.86Z"/><path d="M35.59 11.88a6.04 6.04 0 0 1 3.25 2.35c.9 1.48.93 4.21-1.7 3.7-2.32-.44-4-2.88-4.47-5-.17-.77-1.36-.44-1.19.33a7.92 7.92 0 0 0 3.04 4.7c1.24.9 3.4 2 4.86.96 1.5-1.06 1.5-3.25.82-4.76-.8-1.78-2.5-2.81-4.28-3.46-.75-.27-1.07.91-.33 1.18Zm-12.49 3.37c-3.6 2.15-6.26 4.55-6.89 8.86-.68 4.69.42 9.58 1.42 14.15.17.77 1.36.44 1.19-.33-.9-4.04-1.8-8.22-1.52-12.37.3-4.54 2.67-7.01 6.42-9.25.68-.41.07-1.47-.62-1.06Z"/><path d="M39 13.86c5.05.4 8.61 4.4 9.97 9 1.47 5 .65 10.28-.15 15.32-.13.77 1.06 1.1 1.18.32.94-5.91 1.88-12.19-.54-17.9-1.83-4.3-5.64-7.58-10.45-7.96-.8-.06-.8 1.16 0 1.22Zm-14.67 3.92c-6.03 4.35-4.08 14.18-2.86 20.29.15.77 1.35.44 1.19-.33-.64-3.2-1.23-6.43-1.17-9.7.06-3.18.67-7.19 3.46-9.2.64-.46.02-1.52-.62-1.06Zm6.77-3.95a26.87 26.87 0 0 0-4.22 11.3c-.28 2.12-.3 4.28-.04 6.4.27 2.33 1.02 4.56 1.3 6.89.1.77 1.33.78 1.24 0-.49-4.06-1.74-7.8-1.4-11.95a25.64 25.64 0 0 1 4.18-12.03c.43-.66-.63-1.27-1.07-.61Zm3 3.77c1.85 3.02 2.23 6.42 2.56 9.86.33 3.58.6 7.16.83 10.74.05.78 1.28.79 1.23 0-.25-4.06-.55-8.11-.97-12.16-.33-3.18-.88-6.29-2.58-9.05-.4-.67-1.48-.06-1.06.62Z"/><path d="M39.72 18.18c4.6 5.73 4.75 13.04 4.59 20.02-.02.8 1.21.8 1.23 0 .17-7.36-.12-14.87-4.94-20.89-.5-.61-1.37.26-.88.87Zm-7.77 1.49-.2.82c-.1.38.5.54.6.16l.2-.82c.1-.37-.5-.54-.6-.16Zm1.34 2.13v.91c0 .4.61.4.61 0v-.91c0-.4-.61-.4-.61 0Zm-2.99 1.93-.1 1.33c-.02.39.6.39.62 0l.1-1.33c.03-.39-.58-.39-.61 0Zm4.01 2.14v1.23c0 .4.62.4.62 0v-1.23c0-.4-.62-.4-.62 0Zm-2.36 2.25v1.32c0 .4.62.4.62 0v-1.32c0-.4-.62-.4-.62 0Zm-1.34 4.48v1.84c0 .4.62.4.62 0v-1.84c0-.4-.62-.4-.62 0Zm-1.83-4 .22 1.22c.06.4.66.23.6-.16l-.22-1.22c-.07-.39-.67-.22-.6.16Zm4.72 6.04.1 1.22c.04.4.65.4.62 0l-.1-1.22c-.04-.4-.66-.4-.62 0Zm1.85-4.59.1 1.23c.03.38.65.39.62 0l-.1-1.23c-.04-.39-.66-.4-.62 0Zm7.08-13.65 1.43 1.23c.3.26.74-.17.44-.43l-1.43-1.23c-.3-.26-.74.17-.44.43Z"/><path d="m42.69 19.8.8 1.44c.2.34.73.04.54-.3l-.8-1.44c-.2-.35-.73-.04-.54.3Zm2.47.2.92 1.24c.23.31.77 0 .53-.31-.3-.41-.6-.83-.91-1.23-.24-.31-.77-.01-.54.3Zm1.52 5.34.32 2.14c.05.39.65.22.6-.16l-.32-2.14c-.06-.4-.65-.22-.6.16Zm-2.07-1.84.31 1.03c.11.37.7.21.6-.17l-.31-1.01c-.12-.38-.71-.22-.6.16Zm3.27 7.67c.05.49.04.98-.04 1.46-.06.38.53.55.6.16.08-.54.11-1.07.06-1.62-.04-.38-.66-.39-.62 0Zm-1.43 1.94v1.12c0 .4.62.4.62 0v-1.12c0-.4-.62-.4-.62 0Zm.64-10.21c.17.4.34.8.5 1.22.07.15.21.26.39.2.14-.03.28-.22.21-.37l-.51-1.22c-.07-.16-.2-.26-.38-.21-.14.03-.27.22-.21.37Zm-1.15 7.05v.71c0 .4.61.4.61 0v-.7c0-.4-.61-.4-.61 0Zm1.23 6.83c-.02.3-.09.57-.2.84-.05.15.08.33.22.37.18.05.32-.06.38-.2.13-.33.2-.66.22-1 .02-.4-.6-.4-.62 0Zm-25.88-17.9-.63.9c-.23.34.3.64.53.32l.64-.9c.22-.33-.32-.64-.54-.32Zm-1.76 4.47-.23 1.11c-.08.39.51.55.6.17l.23-1.12c.07-.38-.52-.55-.6-.16Zm-.2-2.23c-.32.43-.57.9-.73 1.41-.12.38.47.54.6.17.15-.46.37-.88.67-1.27.24-.32-.3-.62-.54-.3Zm-1.25 4.06-.23 1.53c-.06.38.54.55.6.16l.22-1.53c.06-.38-.54-.55-.6-.16Zm.62 2.94c-.06.5-.03 1 .07 1.5.08.4.67.23.6-.15a4.5 4.5 0 0 1-.05-1.35c.03-.4-.59-.4-.63 0Zm.5 3.87.1.92c.02.16.13.3.31.3.15 0 .33-.14.31-.3l-.1-.92c-.02-.16-.13-.3-.31-.3-.15 0-.33.13-.3.3Zm-1 2.3c.24.39.41.8.52 1.24.1.38.69.22.6-.16a4.89 4.89 0 0 0-.58-1.39c-.21-.33-.74-.02-.54.31Zm1.32 2.57.2.51c.06.15.2.26.38.22.15-.05.28-.23.22-.38l-.21-.51c-.06-.15-.2-.26-.38-.21-.14.03-.27.22-.21.37Z"/></g><defs><clipPath id="a"><path fill="#fff" transform="translate(0 38)" d="M0 0h68v49h-68z"/></clipPath><clipPath id="b"><path fill="#fff" transform="translate(16)" d="M0 0h35v39h-35z"/></clipPath></defs></svg>