<svg viewBox="0 0 150 35" fill="none" xmlns="http://www.w3.org/2000/svg"><path d="M17.15 0a17.15 17.15 0 0 0-1.78 34.2c-.52-4.29-.33-7.8.34-10.69-.38-1.79-1.22-4.44-3.14-6.32 0 0 1.26 1.89 1.95 4.43v.01a13.04 13.04 0 0 1 .37 1.91c-9.7-1.19-11.76-9.88-11.53-13.16 10.3.57 12.42 7.45 12.72 11.72 3.38-11.06 14.1-11.7 14.99-11.72.38 8.5-5.92 15.12-13.46 15.7l.17-.69.05-.2.14-.48.07-.21.18-.53.04-.13.24-.61.02-.05a22.76 22.76 0 0 1 5.5-7.74c-7 4.05-8.18 14.56-8.36 18.78a17.15 17.15 0 1 0 1.5-34.22Zm29.55 10.75c2.27 0 4.12.97 5.32 2.75l-2.24 1.91a3.63 3.63 0 0 0-3.13-1.7c-2.08 0-3.37 1.36-3.37 3.44 0 2.12 1.36 3.55 3.56 3.55 1.18 0 2.12-.42 2.71-1.1v-.6h-2.88v-2.76h6.1v3.9a6.7 6.7 0 0 1-2.47 2.48 7.05 7.05 0 0 1-3.6.94c-3.7.06-6.78-2.83-6.72-6.4-.06-3.56 3.01-6.47 6.72-6.41Zm15.26 12.58-2.8-3.84h-1.32v3.84h-3.22v-12.36h4.85c2.75 0 4.78 1.68 4.78 4.25 0 1.52-.74 2.78-1.95 3.52l3.26 4.6h-3.6Zm-4.13-6.65h1.65c.9 0 1.48-.58 1.48-1.46s-.58-1.44-1.48-1.44h-1.65v2.9Zm9-5.71h8.58v2.9h-5.35v1.7h3.82v2.7h-3.82v2.16h5.58v2.9h-8.8v-12.36Zm10.81 0h8.58v2.9h-5.35v1.7h3.82v2.7h-3.82v2.16h5.58v2.9h-8.8v-12.36Zm21.78 0v12.59h-1.03l-6.7-6.5v6.27h-3.23v-12.59h1.03l6.7 6.41v-6.18h3.23Zm3.84 8.17c.74.97 1.5 1.59 2.76 1.59.84 0 1.27-.3 1.27-.9 0-.55-.28-.72-1.26-1.15l-1.27-.56c-2.04-.9-3.13-2.06-3.13-3.73 0-2.19 1.8-3.65 4.33-3.65 2.04 0 3.48.97 4.23 2.49l-2.16 1.65c-.6-.9-1.16-1.31-2.04-1.31-.67 0-1.1.26-1.1.79 0 .45.26.7 1.07 1l1.42.6c2.16.9 3.17 2 3.17 3.73 0 2.4-1.97 3.86-4.54 3.86a5.38 5.38 0 0 1-4.93-2.77l2.18-1.64Zm9.14-8.17h3.21v4.51h4.52v-4.51h3.22v12.36h-3.22v-4.94h-4.52v4.94h-3.22v-12.36Zm19.44-.23c3.6-.07 6.77 2.87 6.69 6.41.07 3.58-3.09 6.46-6.69 6.4-3.61.06-6.72-2.82-6.65-6.4-.07-3.54 3.04-6.48 6.65-6.4Zm.02 2.96c-1.99 0-3.37 1.4-3.37 3.45 0 1.03.32 1.87.94 2.51a3.3 3.3 0 0 0 2.43.94 3.29 3.29 0 0 0 3.37-3.45 3.3 3.3 0 0 0-3.37-3.45Zm8.51-2.73h4.86c2.75 0 4.77 1.68 4.77 4.25 0 2.53-2.07 4.27-4.77 4.27h-1.63v3.84h-3.23v-12.36Zm4.87 5.71c.9 0 1.48-.58 1.48-1.46s-.58-1.44-1.48-1.44h-1.65v2.9h1.65Z" fill="#46A358"/></svg>