<svg viewBox="0 0 24 24" fill="none" xmlns="http://www.w3.org/2000/svg"><path d="M17.16 20.25h-7.27a5.63 5.63 0 0 1-5.62-5.62v-5.77a8.53 8.53 0 0 0-3.85-7.14.94.94 0 1 1 1.03-1.57c1.38.91 2.5 2.1 3.3 3.48.16.2 1.55 1.67 3.83 1.67h10.8a4.64 4.64 0 0 1 4.48 5.74l-1.25 4.95a5.62 5.62 0 0 1-5.45 4.26Zm-11.25-13.6c.15.71.23 1.45.23 2.2v5.78a3.75 3.75 0 0 0 3.75 3.74h7.27a3.75 3.75 0 0 0 3.63-2.83l1.25-4.96a2.76 2.76 0 0 0-2.67-3.4h-10.8a6.99 6.99 0 0 1-2.66-.54Zm3.51 16.18c0-.65-.52-1.17-1.17-1.17-1.55.06-1.55 2.28 0 2.34.65 0 1.17-.52 1.17-1.17Zm9.33 0c0-.65-.52-1.17-1.17-1.17a1.17 1.17 0 1 0 1.17 1.17Zm1.56-12.85a.94.94 0 0 0-.94-.93h-10.42c-1.24.05-1.24 1.82 0 1.87h10.42c.52 0 .94-.42.94-.94Z" fill="#3D3D3D"/></svg>