<svg viewBox="0 0 16 16" fill="none" xmlns="http://www.w3.org/2000/svg"><path d="M8 1.47c2.13 0 2.4 0 3.27.06 2.2.07 3.2 1.14 3.26 3.27.07.87.07 1.07.07 3.2s0 2.4-.07 3.2c-.06 2.13-1.13 3.2-3.26 3.27-.87.06-1.07.06-3.27.06-2.13 0-2.4 0-3.2-.06-2.2-.07-3.2-1.14-3.27-3.27-.06-.87-.06-1.07-.06-3.2s0-2.4.06-3.2c.07-2.13 1.14-3.2 3.27-3.27.8-.06 1.07-.06 3.2-.06Zm0-1.47c-2.2 0-2.47 0-3.27.07-2.93.13-4.53 1.73-4.66 4.66-.07.8-.07 1.07-.07 3.27s0 2.47.07 3.27c.13 2.93 1.73 4.53 4.66 4.66.8.07 1.07.07 3.27.07s2.47 0 3.27-.07c2.93-.13 4.53-1.73 4.66-4.66.07-.8.07-1.07.07-3.27s0-2.47-.07-3.27c-.13-2.93-1.73-4.53-4.66-4.66-.8-.07-1.07-.07-3.27-.07Zm0 3.87a4.15 4.15 0 0 0-4.13 4.13 4.15 4.15 0 0 0 4.13 4.13 4.15 4.15 0 0 0 4.13-4.13 4.15 4.15 0 0 0-4.13-4.13Zm0 6.8a2.67 2.67 0 0 1-2.67-2.67 2.67 2.67 0 0 1 5.33 0c0 1.47-1.2 2.67-2.66 2.67Zm4.27-7.87c-.54 0-.94.4-.94.93 0 .54.4.94.94.94.53 0 .93-.4.93-.94 0-.53-.4-.93-.93-.93Z" fill="#46A358" fill-opacity=".6"/></svg>